# xmcd CD database file
#
# Track frame offsets:
#	150
#	18702
#	39934
#	56135
#	74932
#	92712
#	114571
#	145738
#	164753
#	188058
#	211886
#
# Disc length: 3052 seconds
#
# Revision: 5
# Processed by: cddbd v1.5.1PL0 Copyright (c) Steve Scherf et al.
# Submitted via: CDex 1.50
#
DISCID=a60bea0b
DTITLE=Des'ree - Supernatural
DYEAR=1998
DGENRE=Pop
TTITLE0=What's your sign?
TTITLE1=God only knows
TTITLE2=Life
TTITLE3=Best days
TTITLE4=Proud to be a dread
TTITLE5=I'm kissing you
TTITLE6=Indigo daisies
TTITLE7=Time
TTITLE8=Down the river
TTITLE9=Darwin star
TTITLE10=Fire
EXTD=YEAR: 1998
EXTT0=
EXTT1=
EXTT2=
EXTT3=
EXTT4=
EXTT5=
EXTT6=
EXTT7=
EXTT8=
EXTT9=
EXTT10=
PLAYORDER=
